# xmcd
#
# Track frame offsets:
#   150
#   12699
#   25116
#   35785
#   46865
#
# Disc length: 840 seconds
#
# Revision: 0
# Processed by: cddbd v1.5.2PL0 Copyright (c) Steve Scherf et al.
# Submitted via: GXTranscoder 2.0.1939
#
DISCID=3a034605
DTITLE=Hermanns Heimat - herzland
DYEAR=1995
DGENRE=Alternative
TTITLE0=Hermans Heimatlied
TTITLE1=Kleiner Junge
TTITLE2=Du bist ein Wunder
TTITLE3=Ganz Tief
TTITLE4=Lauf!
EXTD=
EXTT0=
EXTT1=
EXTT2=
EXTT3=
EXTT4=
PLAYORDER=
